<mxfile host="app.diagrams.net" modified="2024-06-18T18:08:01.875Z" agent="Mozilla/5.0 (Windows NT 10.0; Win64; x64) AppleWebKit/537.36 (KHTML, like Gecko) Chrome/126.0.0.0 Safari/537.36" etag="pQz-n36Qn-IAn50MNVRe" version="24.5.4" type="github">
  <diagram name="Page-1" id="WOP2-RksU-mO_7DsM-_O">
    <mxGraphModel dx="4839" dy="5591" grid="1" gridSize="10" guides="1" tooltips="1" connect="1" arrows="1" fold="1" page="1" pageScale="1" pageWidth="850" pageHeight="1100" math="0" shadow="0">
      <root>
        <mxCell id="0" />
        <mxCell id="1" parent="0" />
        <mxCell id="4PrdgSwKh92XZqFmVlbO-8" value="Products" style="rounded=1;whiteSpace=wrap;html=1;" parent="1" vertex="1">
          <mxGeometry x="-1070" y="-2805" width="150" height="50" as="geometry" />
        </mxCell>
        <mxCell id="4PrdgSwKh92XZqFmVlbO-10" value="Last viewed products" style="rounded=1;whiteSpace=wrap;html=1;" parent="1" vertex="1">
          <mxGeometry x="-1395" y="-3032" width="150" height="50" as="geometry" />
        </mxCell>
        <mxCell id="4PrdgSwKh92XZqFmVlbO-11" value="Favorites" style="rounded=1;whiteSpace=wrap;html=1;" parent="1" vertex="1">
          <mxGeometry x="-1610" y="-2815" width="150" height="50" as="geometry" />
        </mxCell>
        <mxCell id="4PrdgSwKh92XZqFmVlbO-25" value="Belongs to" style="rhombus;whiteSpace=wrap;html=1;" parent="1" vertex="1">
          <mxGeometry x="-1360" y="-2820" width="80" height="60" as="geometry" />
        </mxCell>
        <mxCell id="4PrdgSwKh92XZqFmVlbO-31" value="Websites" style="rounded=1;whiteSpace=wrap;html=1;" parent="1" vertex="1">
          <mxGeometry x="-620" y="-2856" width="150" height="50" as="geometry" />
        </mxCell>
        <mxCell id="4PrdgSwKh92XZqFmVlbO-51" value="URL" style="ellipse;whiteSpace=wrap;html=1;" parent="1" vertex="1">
          <mxGeometry x="-460" y="-2745" width="90" height="40" as="geometry" />
        </mxCell>
        <mxCell id="4PrdgSwKh92XZqFmVlbO-53" value="name" style="ellipse;whiteSpace=wrap;html=1;" parent="1" vertex="1">
          <mxGeometry x="-440" y="-2930" width="90" height="40" as="geometry" />
        </mxCell>
        <mxCell id="4PrdgSwKh92XZqFmVlbO-56" value="" style="endArrow=none;html=1;rounded=0;exitX=0.5;exitY=0;exitDx=0;exitDy=0;entryX=0.5;entryY=1;entryDx=0;entryDy=0;" parent="1" source="4PrdgSwKh92XZqFmVlbO-51" target="4PrdgSwKh92XZqFmVlbO-31" edge="1">
          <mxGeometry width="50" height="50" relative="1" as="geometry">
            <mxPoint x="-575" y="-2861.5" as="sourcePoint" />
            <mxPoint x="-575" y="-2883.5" as="targetPoint" />
          </mxGeometry>
        </mxCell>
        <mxCell id="4PrdgSwKh92XZqFmVlbO-57" value="" style="endArrow=none;html=1;rounded=0;exitX=0.75;exitY=0;exitDx=0;exitDy=0;entryX=0;entryY=1;entryDx=0;entryDy=0;" parent="1" source="4PrdgSwKh92XZqFmVlbO-31" target="4PrdgSwKh92XZqFmVlbO-53" edge="1">
          <mxGeometry width="50" height="50" relative="1" as="geometry">
            <mxPoint x="-565" y="-2851.5" as="sourcePoint" />
            <mxPoint x="-565" y="-2873.5" as="targetPoint" />
          </mxGeometry>
        </mxCell>
        <mxCell id="4PrdgSwKh92XZqFmVlbO-79" value="price" style="ellipse;whiteSpace=wrap;html=1;" parent="1" vertex="1">
          <mxGeometry x="-1145" y="-2685" width="90" height="40" as="geometry" />
        </mxCell>
        <mxCell id="4PrdgSwKh92XZqFmVlbO-80" value="image" style="ellipse;whiteSpace=wrap;html=1;" parent="1" vertex="1">
          <mxGeometry x="-1050" y="-2685" width="90" height="40" as="geometry" />
        </mxCell>
        <mxCell id="4PrdgSwKh92XZqFmVlbO-81" value="&lt;u&gt;ID&lt;/u&gt;" style="ellipse;whiteSpace=wrap;html=1;" parent="1" vertex="1">
          <mxGeometry x="-1510" y="-3027" width="90" height="40" as="geometry" />
        </mxCell>
        <mxCell id="4PrdgSwKh92XZqFmVlbO-82" value="" style="endArrow=none;html=1;rounded=0;exitX=0;exitY=0.5;exitDx=0;exitDy=0;entryX=1;entryY=0.5;entryDx=0;entryDy=0;" parent="1" source="4PrdgSwKh92XZqFmVlbO-10" target="4PrdgSwKh92XZqFmVlbO-81" edge="1">
          <mxGeometry width="50" height="50" relative="1" as="geometry">
            <mxPoint x="-1637.5" y="-3240.5" as="sourcePoint" />
            <mxPoint x="-1572.5" y="-3220.5" as="targetPoint" />
          </mxGeometry>
        </mxCell>
        <mxCell id="4PrdgSwKh92XZqFmVlbO-83" value="&lt;u&gt;ID&lt;/u&gt;" style="ellipse;whiteSpace=wrap;html=1;" parent="1" vertex="1">
          <mxGeometry x="-350" y="-2802" width="90" height="40" as="geometry" />
        </mxCell>
        <mxCell id="4PrdgSwKh92XZqFmVlbO-84" value="" style="endArrow=none;html=1;rounded=0;exitX=1;exitY=0.5;exitDx=0;exitDy=0;entryX=0;entryY=0.5;entryDx=0;entryDy=0;" parent="1" source="4PrdgSwKh92XZqFmVlbO-31" target="4PrdgSwKh92XZqFmVlbO-83" edge="1">
          <mxGeometry width="50" height="50" relative="1" as="geometry">
            <mxPoint x="-670" y="-2835.5" as="sourcePoint" />
            <mxPoint x="-945" y="-2998.5" as="targetPoint" />
          </mxGeometry>
        </mxCell>
        <mxCell id="4PrdgSwKh92XZqFmVlbO-86" value="&lt;div&gt;short_description&lt;/div&gt;" style="ellipse;whiteSpace=wrap;html=1;" parent="1" vertex="1">
          <mxGeometry x="-780" y="-2685" width="90" height="40" as="geometry" />
        </mxCell>
        <mxCell id="4PrdgSwKh92XZqFmVlbO-88" value="URL" style="ellipse;whiteSpace=wrap;html=1;" parent="1" vertex="1">
          <mxGeometry x="-870" y="-2665" width="90" height="40" as="geometry" />
        </mxCell>
        <mxCell id="4PrdgSwKh92XZqFmVlbO-90" value="" style="endArrow=none;html=1;rounded=0;entryX=0.25;entryY=1;entryDx=0;entryDy=0;exitX=0.5;exitY=0;exitDx=0;exitDy=0;" parent="1" source="4PrdgSwKh92XZqFmVlbO-79" target="4PrdgSwKh92XZqFmVlbO-8" edge="1">
          <mxGeometry width="50" height="50" relative="1" as="geometry">
            <mxPoint x="-1105" y="-2720" as="sourcePoint" />
            <mxPoint x="-1070" y="-2740" as="targetPoint" />
          </mxGeometry>
        </mxCell>
        <mxCell id="4PrdgSwKh92XZqFmVlbO-91" value="" style="endArrow=none;html=1;rounded=0;exitX=0.5;exitY=0;exitDx=0;exitDy=0;entryX=0.5;entryY=1;entryDx=0;entryDy=0;" parent="1" source="4PrdgSwKh92XZqFmVlbO-80" target="4PrdgSwKh92XZqFmVlbO-8" edge="1">
          <mxGeometry width="50" height="50" relative="1" as="geometry">
            <mxPoint x="-1110" y="-2675" as="sourcePoint" />
            <mxPoint x="-1035" y="-2745" as="targetPoint" />
          </mxGeometry>
        </mxCell>
        <mxCell id="4PrdgSwKh92XZqFmVlbO-92" value="" style="endArrow=none;html=1;rounded=0;entryX=0.75;entryY=1;entryDx=0;entryDy=0;exitX=0.5;exitY=0;exitDx=0;exitDy=0;" parent="1" source="4PrdgSwKh92XZqFmVlbO-88" target="4PrdgSwKh92XZqFmVlbO-8" edge="1">
          <mxGeometry width="50" height="50" relative="1" as="geometry">
            <mxPoint x="-1100" y="-2665" as="sourcePoint" />
            <mxPoint x="-1022" y="-2730" as="targetPoint" />
          </mxGeometry>
        </mxCell>
        <mxCell id="4PrdgSwKh92XZqFmVlbO-93" value="" style="endArrow=none;html=1;rounded=0;entryX=1;entryY=1;entryDx=0;entryDy=0;exitX=0;exitY=0;exitDx=0;exitDy=0;" parent="1" source="4PrdgSwKh92XZqFmVlbO-86" target="4PrdgSwKh92XZqFmVlbO-8" edge="1">
          <mxGeometry width="50" height="50" relative="1" as="geometry">
            <mxPoint x="-1090" y="-2655" as="sourcePoint" />
            <mxPoint x="-1012" y="-2720" as="targetPoint" />
          </mxGeometry>
        </mxCell>
        <mxCell id="4PrdgSwKh92XZqFmVlbO-95" value="name" style="ellipse;whiteSpace=wrap;html=1;" parent="1" vertex="1">
          <mxGeometry x="-1240" y="-2680" width="90" height="40" as="geometry" />
        </mxCell>
        <mxCell id="4PrdgSwKh92XZqFmVlbO-97" value="" style="endArrow=none;html=1;rounded=0;entryX=0;entryY=1;entryDx=0;entryDy=0;exitX=1;exitY=0;exitDx=0;exitDy=0;" parent="1" source="4PrdgSwKh92XZqFmVlbO-95" target="4PrdgSwKh92XZqFmVlbO-8" edge="1">
          <mxGeometry width="50" height="50" relative="1" as="geometry">
            <mxPoint x="-1095" y="-2675" as="sourcePoint" />
            <mxPoint x="-1032" y="-2740" as="targetPoint" />
          </mxGeometry>
        </mxCell>
        <mxCell id="4PrdgSwKh92XZqFmVlbO-100" value="&lt;u&gt;ID&lt;/u&gt;" style="ellipse;whiteSpace=wrap;html=1;" parent="1" vertex="1">
          <mxGeometry x="-1790" y="-2810" width="90" height="40" as="geometry" />
        </mxCell>
        <mxCell id="4PrdgSwKh92XZqFmVlbO-101" value="" style="endArrow=none;html=1;rounded=0;exitX=1;exitY=0.5;exitDx=0;exitDy=0;entryX=0;entryY=0.5;entryDx=0;entryDy=0;" parent="1" source="4PrdgSwKh92XZqFmVlbO-100" target="4PrdgSwKh92XZqFmVlbO-11" edge="1">
          <mxGeometry width="50" height="50" relative="1" as="geometry">
            <mxPoint x="-1505" y="-2940" as="sourcePoint" />
            <mxPoint x="-1455" y="-2990" as="targetPoint" />
          </mxGeometry>
        </mxCell>
        <mxCell id="WJWYkvG_mtjWgYOk-y5Q-1" value="&lt;div&gt;average_rating&lt;/div&gt;" style="ellipse;whiteSpace=wrap;html=1;" vertex="1" parent="1">
          <mxGeometry x="-780" y="-2750" width="90" height="40" as="geometry" />
        </mxCell>
        <mxCell id="WJWYkvG_mtjWgYOk-y5Q-2" value="" style="endArrow=none;html=1;rounded=0;exitX=0;exitY=0;exitDx=0;exitDy=0;" edge="1" parent="1" source="WJWYkvG_mtjWgYOk-y5Q-1" target="4PrdgSwKh92XZqFmVlbO-8">
          <mxGeometry width="50" height="50" relative="1" as="geometry">
            <mxPoint x="-1080" y="-2715" as="sourcePoint" />
            <mxPoint x="-920" y="-2810" as="targetPoint" />
          </mxGeometry>
        </mxCell>
        <mxCell id="WJWYkvG_mtjWgYOk-y5Q-3" value="&lt;div&gt;total_reviews&lt;/div&gt;" style="ellipse;whiteSpace=wrap;html=1;" vertex="1" parent="1">
          <mxGeometry x="-1245" y="-2730" width="90" height="40" as="geometry" />
        </mxCell>
        <mxCell id="WJWYkvG_mtjWgYOk-y5Q-4" value="" style="endArrow=none;html=1;rounded=0;exitX=1;exitY=0;exitDx=0;exitDy=0;entryX=0;entryY=0.75;entryDx=0;entryDy=0;" edge="1" parent="1" source="WJWYkvG_mtjWgYOk-y5Q-3" target="4PrdgSwKh92XZqFmVlbO-8">
          <mxGeometry width="50" height="50" relative="1" as="geometry">
            <mxPoint x="-1500" y="-2727.5" as="sourcePoint" />
            <mxPoint x="-1340" y="-2822.5" as="targetPoint" />
          </mxGeometry>
        </mxCell>
        <mxCell id="WJWYkvG_mtjWgYOk-y5Q-5" value="&lt;div&gt;seller_name&lt;/div&gt;" style="ellipse;whiteSpace=wrap;html=1;" vertex="1" parent="1">
          <mxGeometry x="-960" y="-2650" width="90" height="40" as="geometry" />
        </mxCell>
        <mxCell id="WJWYkvG_mtjWgYOk-y5Q-6" value="" style="endArrow=none;html=1;rounded=0;exitX=0.5;exitY=0;exitDx=0;exitDy=0;" edge="1" parent="1" source="WJWYkvG_mtjWgYOk-y5Q-5" target="4PrdgSwKh92XZqFmVlbO-8">
          <mxGeometry width="50" height="50" relative="1" as="geometry">
            <mxPoint x="-1270" y="-2531" as="sourcePoint" />
            <mxPoint x="-1120" y="-2580" as="targetPoint" />
          </mxGeometry>
        </mxCell>
        <mxCell id="WJWYkvG_mtjWgYOk-y5Q-24" value="M" style="text;html=1;align=center;verticalAlign=middle;resizable=0;points=[];autosize=1;strokeColor=none;fillColor=none;" vertex="1" parent="1">
          <mxGeometry x="-1350" y="-3062" width="30" height="30" as="geometry" />
        </mxCell>
        <mxCell id="WJWYkvG_mtjWgYOk-y5Q-25" value="1" style="text;html=1;align=center;verticalAlign=middle;resizable=0;points=[];autosize=1;strokeColor=none;fillColor=none;" vertex="1" parent="1">
          <mxGeometry x="-1020" y="-2841" width="30" height="30" as="geometry" />
        </mxCell>
        <mxCell id="WJWYkvG_mtjWgYOk-y5Q-43" value="User" style="rounded=1;whiteSpace=wrap;html=1;" vertex="1" parent="1">
          <mxGeometry x="-1615" y="-3238" width="150" height="50" as="geometry" />
        </mxCell>
        <mxCell id="WJWYkvG_mtjWgYOk-y5Q-44" value="name" style="ellipse;whiteSpace=wrap;html=1;" vertex="1" parent="1">
          <mxGeometry x="-1720" y="-3303" width="90" height="40" as="geometry" />
        </mxCell>
        <mxCell id="WJWYkvG_mtjWgYOk-y5Q-45" value="password" style="ellipse;whiteSpace=wrap;html=1;" vertex="1" parent="1">
          <mxGeometry x="-1380" y="-3312.5" width="90" height="40" as="geometry" />
        </mxCell>
        <mxCell id="WJWYkvG_mtjWgYOk-y5Q-46" value="&lt;u&gt;email&lt;/u&gt;" style="ellipse;whiteSpace=wrap;html=1;" vertex="1" parent="1">
          <mxGeometry x="-1485" y="-3373" width="90" height="40" as="geometry" />
        </mxCell>
        <mxCell id="WJWYkvG_mtjWgYOk-y5Q-47" value="&lt;u&gt;ID&lt;/u&gt;" style="ellipse;whiteSpace=wrap;html=1;" vertex="1" parent="1">
          <mxGeometry x="-1800" y="-3233" width="90" height="40" as="geometry" />
        </mxCell>
        <mxCell id="WJWYkvG_mtjWgYOk-y5Q-48" value="" style="endArrow=none;html=1;rounded=0;exitX=1;exitY=0.5;exitDx=0;exitDy=0;entryX=0;entryY=0.5;entryDx=0;entryDy=0;" edge="1" source="WJWYkvG_mtjWgYOk-y5Q-47" target="WJWYkvG_mtjWgYOk-y5Q-43" parent="1">
          <mxGeometry width="50" height="50" relative="1" as="geometry">
            <mxPoint x="-1630" y="-3335" as="sourcePoint" />
            <mxPoint x="-1580" y="-3385" as="targetPoint" />
          </mxGeometry>
        </mxCell>
        <mxCell id="WJWYkvG_mtjWgYOk-y5Q-49" value="" style="endArrow=none;html=1;rounded=0;exitX=0.5;exitY=1;exitDx=0;exitDy=0;entryX=0.25;entryY=0;entryDx=0;entryDy=0;" edge="1" source="WJWYkvG_mtjWgYOk-y5Q-44" target="WJWYkvG_mtjWgYOk-y5Q-43" parent="1">
          <mxGeometry width="50" height="50" relative="1" as="geometry">
            <mxPoint x="-1600" y="-3555" as="sourcePoint" />
            <mxPoint x="-1525" y="-3525" as="targetPoint" />
          </mxGeometry>
        </mxCell>
        <mxCell id="WJWYkvG_mtjWgYOk-y5Q-50" value="" style="endArrow=none;html=1;rounded=0;exitX=0.5;exitY=1;exitDx=0;exitDy=0;entryX=0.75;entryY=0;entryDx=0;entryDy=0;" edge="1" source="WJWYkvG_mtjWgYOk-y5Q-46" target="WJWYkvG_mtjWgYOk-y5Q-43" parent="1">
          <mxGeometry width="50" height="50" relative="1" as="geometry">
            <mxPoint x="-1590" y="-3545" as="sourcePoint" />
            <mxPoint x="-1515" y="-3515" as="targetPoint" />
          </mxGeometry>
        </mxCell>
        <mxCell id="WJWYkvG_mtjWgYOk-y5Q-51" value="" style="endArrow=none;html=1;rounded=0;exitX=0;exitY=0.5;exitDx=0;exitDy=0;entryX=1;entryY=0;entryDx=0;entryDy=0;" edge="1" source="WJWYkvG_mtjWgYOk-y5Q-45" target="WJWYkvG_mtjWgYOk-y5Q-43" parent="1">
          <mxGeometry width="50" height="50" relative="1" as="geometry">
            <mxPoint x="-1580" y="-3535" as="sourcePoint" />
            <mxPoint x="-1505" y="-3505" as="targetPoint" />
          </mxGeometry>
        </mxCell>
        <mxCell id="WJWYkvG_mtjWgYOk-y5Q-52" value="F-name" style="ellipse;whiteSpace=wrap;html=1;" vertex="1" parent="1">
          <mxGeometry x="-1820" y="-3358" width="90" height="40" as="geometry" />
        </mxCell>
        <mxCell id="WJWYkvG_mtjWgYOk-y5Q-53" value="L-name" style="ellipse;whiteSpace=wrap;html=1;" vertex="1" parent="1">
          <mxGeometry x="-1680" y="-3358" width="90" height="40" as="geometry" />
        </mxCell>
        <mxCell id="WJWYkvG_mtjWgYOk-y5Q-54" value="" style="endArrow=none;html=1;rounded=0;exitX=0.5;exitY=1;exitDx=0;exitDy=0;entryX=0;entryY=0;entryDx=0;entryDy=0;" edge="1" source="WJWYkvG_mtjWgYOk-y5Q-52" target="WJWYkvG_mtjWgYOk-y5Q-44" parent="1">
          <mxGeometry width="50" height="50" relative="1" as="geometry">
            <mxPoint x="-1730" y="-3018" as="sourcePoint" />
            <mxPoint x="-1680" y="-3068" as="targetPoint" />
          </mxGeometry>
        </mxCell>
        <mxCell id="WJWYkvG_mtjWgYOk-y5Q-55" value="" style="endArrow=none;html=1;rounded=0;exitX=0.5;exitY=1;exitDx=0;exitDy=0;entryX=1;entryY=0;entryDx=0;entryDy=0;" edge="1" source="WJWYkvG_mtjWgYOk-y5Q-53" target="WJWYkvG_mtjWgYOk-y5Q-44" parent="1">
          <mxGeometry width="50" height="50" relative="1" as="geometry">
            <mxPoint x="-1703" y="-3334" as="sourcePoint" />
            <mxPoint x="-1677" y="-3302" as="targetPoint" />
          </mxGeometry>
        </mxCell>
        <mxCell id="WJWYkvG_mtjWgYOk-y5Q-56" value="image" style="ellipse;whiteSpace=wrap;html=1;" vertex="1" parent="1">
          <mxGeometry x="-1570" y="-3380" width="90" height="40" as="geometry" />
        </mxCell>
        <mxCell id="WJWYkvG_mtjWgYOk-y5Q-57" value="" style="endArrow=none;html=1;rounded=0;exitX=0.5;exitY=1;exitDx=0;exitDy=0;entryX=0.5;entryY=0;entryDx=0;entryDy=0;" edge="1" source="WJWYkvG_mtjWgYOk-y5Q-56" target="WJWYkvG_mtjWgYOk-y5Q-43" parent="1">
          <mxGeometry width="50" height="50" relative="1" as="geometry">
            <mxPoint x="-1665" y="-3625" as="sourcePoint" />
            <mxPoint x="-1597" y="-3604" as="targetPoint" />
          </mxGeometry>
        </mxCell>
        <mxCell id="WJWYkvG_mtjWgYOk-y5Q-58" value="reviews" style="rounded=1;whiteSpace=wrap;html=1;" vertex="1" parent="1">
          <mxGeometry x="-1060" y="-3233" width="150" height="50" as="geometry" />
        </mxCell>
        <mxCell id="WJWYkvG_mtjWgYOk-y5Q-59" value="text" style="ellipse;whiteSpace=wrap;html=1;" vertex="1" parent="1">
          <mxGeometry x="-1125" y="-3365" width="90" height="40" as="geometry" />
        </mxCell>
        <mxCell id="WJWYkvG_mtjWgYOk-y5Q-60" value="is_fake" style="ellipse;whiteSpace=wrap;html=1;" vertex="1" parent="1">
          <mxGeometry x="-870" y="-3298.5" width="90" height="40" as="geometry" />
        </mxCell>
        <mxCell id="WJWYkvG_mtjWgYOk-y5Q-61" value="reviewer" style="ellipse;whiteSpace=wrap;html=1;" vertex="1" parent="1">
          <mxGeometry x="-945" y="-3350" width="90" height="40" as="geometry" />
        </mxCell>
        <mxCell id="WJWYkvG_mtjWgYOk-y5Q-62" value="&lt;u&gt;ID&lt;/u&gt;" style="ellipse;whiteSpace=wrap;html=1;" vertex="1" parent="1">
          <mxGeometry x="-1205" y="-3320" width="90" height="40" as="geometry" />
        </mxCell>
        <mxCell id="WJWYkvG_mtjWgYOk-y5Q-63" value="" style="endArrow=none;html=1;rounded=0;exitX=1;exitY=0.5;exitDx=0;exitDy=0;entryX=0;entryY=0;entryDx=0;entryDy=0;" edge="1" source="WJWYkvG_mtjWgYOk-y5Q-62" target="WJWYkvG_mtjWgYOk-y5Q-58" parent="1">
          <mxGeometry width="50" height="50" relative="1" as="geometry">
            <mxPoint x="-1140" y="-3035" as="sourcePoint" />
            <mxPoint x="-1090" y="-3085" as="targetPoint" />
          </mxGeometry>
        </mxCell>
        <mxCell id="WJWYkvG_mtjWgYOk-y5Q-64" value="" style="endArrow=none;html=1;rounded=0;exitX=0.5;exitY=1;exitDx=0;exitDy=0;entryX=0.25;entryY=0;entryDx=0;entryDy=0;" edge="1" source="WJWYkvG_mtjWgYOk-y5Q-59" target="WJWYkvG_mtjWgYOk-y5Q-58" parent="1">
          <mxGeometry width="50" height="50" relative="1" as="geometry">
            <mxPoint x="-1110" y="-3255" as="sourcePoint" />
            <mxPoint x="-1035" y="-3225" as="targetPoint" />
          </mxGeometry>
        </mxCell>
        <mxCell id="WJWYkvG_mtjWgYOk-y5Q-65" value="" style="endArrow=none;html=1;rounded=0;exitX=0.5;exitY=1;exitDx=0;exitDy=0;entryX=0.75;entryY=0;entryDx=0;entryDy=0;" edge="1" source="WJWYkvG_mtjWgYOk-y5Q-61" target="WJWYkvG_mtjWgYOk-y5Q-58" parent="1">
          <mxGeometry width="50" height="50" relative="1" as="geometry">
            <mxPoint x="-1100" y="-3245" as="sourcePoint" />
            <mxPoint x="-1025" y="-3215" as="targetPoint" />
          </mxGeometry>
        </mxCell>
        <mxCell id="WJWYkvG_mtjWgYOk-y5Q-66" value="" style="endArrow=none;html=1;rounded=0;exitX=0;exitY=0.5;exitDx=0;exitDy=0;entryX=1;entryY=0;entryDx=0;entryDy=0;" edge="1" source="WJWYkvG_mtjWgYOk-y5Q-60" target="WJWYkvG_mtjWgYOk-y5Q-58" parent="1">
          <mxGeometry width="50" height="50" relative="1" as="geometry">
            <mxPoint x="-1090" y="-3235" as="sourcePoint" />
            <mxPoint x="-1015" y="-3205" as="targetPoint" />
          </mxGeometry>
        </mxCell>
        <mxCell id="WJWYkvG_mtjWgYOk-y5Q-71" value="title" style="ellipse;whiteSpace=wrap;html=1;" vertex="1" parent="1">
          <mxGeometry x="-1030" y="-3390" width="90" height="40" as="geometry" />
        </mxCell>
        <mxCell id="WJWYkvG_mtjWgYOk-y5Q-72" value="" style="endArrow=none;html=1;rounded=0;exitX=0.5;exitY=1;exitDx=0;exitDy=0;entryX=0.5;entryY=0;entryDx=0;entryDy=0;" edge="1" source="WJWYkvG_mtjWgYOk-y5Q-71" target="WJWYkvG_mtjWgYOk-y5Q-58" parent="1">
          <mxGeometry width="50" height="50" relative="1" as="geometry">
            <mxPoint x="-1175" y="-3325" as="sourcePoint" />
            <mxPoint x="-1107" y="-3304" as="targetPoint" />
          </mxGeometry>
        </mxCell>
        <mxCell id="WJWYkvG_mtjWgYOk-y5Q-73" value="icon" style="ellipse;whiteSpace=wrap;html=1;" vertex="1" parent="1">
          <mxGeometry x="-605" y="-2745" width="90" height="40" as="geometry" />
        </mxCell>
        <mxCell id="WJWYkvG_mtjWgYOk-y5Q-74" value="" style="endArrow=none;html=1;rounded=0;exitX=0.25;exitY=1;exitDx=0;exitDy=0;entryX=1;entryY=0;entryDx=0;entryDy=0;" edge="1" parent="1" target="WJWYkvG_mtjWgYOk-y5Q-73" source="4PrdgSwKh92XZqFmVlbO-31">
          <mxGeometry width="50" height="50" relative="1" as="geometry">
            <mxPoint x="-550" y="-2753.5" as="sourcePoint" />
            <mxPoint x="-605" y="-2951.5" as="targetPoint" />
          </mxGeometry>
        </mxCell>
        <mxCell id="WJWYkvG_mtjWgYOk-y5Q-75" value="summarize" style="ellipse;whiteSpace=wrap;html=1;" vertex="1" parent="1">
          <mxGeometry x="-790" y="-3253.5" width="90" height="40" as="geometry" />
        </mxCell>
        <mxCell id="WJWYkvG_mtjWgYOk-y5Q-76" value="url" style="ellipse;whiteSpace=wrap;html=1;" vertex="1" parent="1">
          <mxGeometry x="-1225" y="-3265" width="90" height="40" as="geometry" />
        </mxCell>
        <mxCell id="WJWYkvG_mtjWgYOk-y5Q-77" value="positivity" style="ellipse;whiteSpace=wrap;html=1;" vertex="1" parent="1">
          <mxGeometry x="-855" y="-3155" width="90" height="40" as="geometry" />
        </mxCell>
        <mxCell id="WJWYkvG_mtjWgYOk-y5Q-79" value="" style="endArrow=none;html=1;rounded=0;exitX=0;exitY=0.5;exitDx=0;exitDy=0;entryX=1;entryY=0.5;entryDx=0;entryDy=0;" edge="1" source="WJWYkvG_mtjWgYOk-y5Q-75" parent="1" target="WJWYkvG_mtjWgYOk-y5Q-58">
          <mxGeometry width="50" height="50" relative="1" as="geometry">
            <mxPoint x="-705" y="-3225" as="sourcePoint" />
            <mxPoint x="-602" y="-3205" as="targetPoint" />
          </mxGeometry>
        </mxCell>
        <mxCell id="WJWYkvG_mtjWgYOk-y5Q-80" value="" style="endArrow=none;html=1;rounded=0;exitX=0;exitY=0;exitDx=0;exitDy=0;" edge="1" source="WJWYkvG_mtjWgYOk-y5Q-77" parent="1" target="WJWYkvG_mtjWgYOk-y5Q-58">
          <mxGeometry width="50" height="50" relative="1" as="geometry">
            <mxPoint x="-1099" y="-3060" as="sourcePoint" />
            <mxPoint x="-931" y="-3050" as="targetPoint" />
          </mxGeometry>
        </mxCell>
        <mxCell id="WJWYkvG_mtjWgYOk-y5Q-81" value="" style="endArrow=none;html=1;rounded=0;exitX=1;exitY=0.5;exitDx=0;exitDy=0;entryX=0;entryY=0.5;entryDx=0;entryDy=0;" edge="1" source="WJWYkvG_mtjWgYOk-y5Q-76" parent="1" target="WJWYkvG_mtjWgYOk-y5Q-58">
          <mxGeometry width="50" height="50" relative="1" as="geometry">
            <mxPoint x="-1495" y="-3180" as="sourcePoint" />
            <mxPoint x="-1300" y="-3180" as="targetPoint" />
          </mxGeometry>
        </mxCell>
        <mxCell id="WJWYkvG_mtjWgYOk-y5Q-82" value="rating" style="ellipse;whiteSpace=wrap;html=1;" vertex="1" parent="1">
          <mxGeometry x="-780" y="-3195" width="90" height="40" as="geometry" />
        </mxCell>
        <mxCell id="WJWYkvG_mtjWgYOk-y5Q-83" value="" style="endArrow=none;html=1;rounded=0;exitX=0;exitY=0.5;exitDx=0;exitDy=0;" edge="1" source="WJWYkvG_mtjWgYOk-y5Q-82" parent="1" target="WJWYkvG_mtjWgYOk-y5Q-58">
          <mxGeometry width="50" height="50" relative="1" as="geometry">
            <mxPoint x="-935" y="-3145" as="sourcePoint" />
            <mxPoint x="-730" y="-3055" as="targetPoint" />
          </mxGeometry>
        </mxCell>
        <mxCell id="WJWYkvG_mtjWgYOk-y5Q-84" value="negativity" style="ellipse;whiteSpace=wrap;html=1;" vertex="1" parent="1">
          <mxGeometry x="-945" y="-3130" width="90" height="40" as="geometry" />
        </mxCell>
        <mxCell id="WJWYkvG_mtjWgYOk-y5Q-85" value="" style="endArrow=none;html=1;rounded=0;exitX=0.5;exitY=0;exitDx=0;exitDy=0;" edge="1" source="WJWYkvG_mtjWgYOk-y5Q-84" parent="1" target="WJWYkvG_mtjWgYOk-y5Q-58">
          <mxGeometry width="50" height="50" relative="1" as="geometry">
            <mxPoint x="-1285" y="-3090" as="sourcePoint" />
            <mxPoint x="-1090" y="-3090" as="targetPoint" />
          </mxGeometry>
        </mxCell>
        <mxCell id="WJWYkvG_mtjWgYOk-y5Q-86" value="date" style="ellipse;whiteSpace=wrap;html=1;" vertex="1" parent="1">
          <mxGeometry x="-1225" y="-3205" width="90" height="40" as="geometry" />
        </mxCell>
        <mxCell id="WJWYkvG_mtjWgYOk-y5Q-87" value="" style="endArrow=none;html=1;rounded=0;exitX=1;exitY=0.5;exitDx=0;exitDy=0;" edge="1" source="WJWYkvG_mtjWgYOk-y5Q-86" parent="1" target="WJWYkvG_mtjWgYOk-y5Q-58">
          <mxGeometry width="50" height="50" relative="1" as="geometry">
            <mxPoint x="-1485" y="-3140" as="sourcePoint" />
            <mxPoint x="-1035" y="-3170" as="targetPoint" />
          </mxGeometry>
        </mxCell>
        <mxCell id="WJWYkvG_mtjWgYOk-y5Q-89" value="images" style="ellipse;whiteSpace=wrap;html=1;" vertex="1" parent="1">
          <mxGeometry x="-1200" y="-3130" width="90" height="40" as="geometry" />
        </mxCell>
        <mxCell id="WJWYkvG_mtjWgYOk-y5Q-90" value="" style="endArrow=none;html=1;rounded=0;exitX=0.5;exitY=0;exitDx=0;exitDy=0;" edge="1" source="WJWYkvG_mtjWgYOk-y5Q-89" parent="1" target="WJWYkvG_mtjWgYOk-y5Q-58">
          <mxGeometry width="50" height="50" relative="1" as="geometry">
            <mxPoint x="-1370" y="-3085" as="sourcePoint" />
            <mxPoint x="-1062" y="-3180" as="targetPoint" />
          </mxGeometry>
        </mxCell>
        <mxCell id="WJWYkvG_mtjWgYOk-y5Q-116" value="brand" style="rounded=1;whiteSpace=wrap;html=1;" vertex="1" parent="1">
          <mxGeometry x="-770" y="-3043" width="150" height="50" as="geometry" />
        </mxCell>
        <mxCell id="WJWYkvG_mtjWgYOk-y5Q-117" value="URL" style="ellipse;whiteSpace=wrap;html=1;" vertex="1" parent="1">
          <mxGeometry x="-710" y="-2938" width="90" height="40" as="geometry" />
        </mxCell>
        <mxCell id="WJWYkvG_mtjWgYOk-y5Q-118" value="name" style="ellipse;whiteSpace=wrap;html=1;" vertex="1" parent="1">
          <mxGeometry x="-580" y="-3090" width="90" height="40" as="geometry" />
        </mxCell>
        <mxCell id="WJWYkvG_mtjWgYOk-y5Q-119" value="" style="endArrow=none;html=1;rounded=0;exitX=0.5;exitY=0;exitDx=0;exitDy=0;entryX=0.5;entryY=1;entryDx=0;entryDy=0;" edge="1" parent="1" source="WJWYkvG_mtjWgYOk-y5Q-117" target="WJWYkvG_mtjWgYOk-y5Q-116">
          <mxGeometry width="50" height="50" relative="1" as="geometry">
            <mxPoint x="-695" y="-3051" as="sourcePoint" />
            <mxPoint x="-695" y="-3073" as="targetPoint" />
          </mxGeometry>
        </mxCell>
        <mxCell id="WJWYkvG_mtjWgYOk-y5Q-120" value="" style="endArrow=none;html=1;rounded=0;exitX=1;exitY=0.5;exitDx=0;exitDy=0;entryX=0;entryY=1;entryDx=0;entryDy=0;" edge="1" parent="1" source="WJWYkvG_mtjWgYOk-y5Q-116" target="WJWYkvG_mtjWgYOk-y5Q-118">
          <mxGeometry width="50" height="50" relative="1" as="geometry">
            <mxPoint x="-685" y="-3041" as="sourcePoint" />
            <mxPoint x="-685" y="-3063" as="targetPoint" />
          </mxGeometry>
        </mxCell>
        <mxCell id="WJWYkvG_mtjWgYOk-y5Q-121" value="&lt;u&gt;ID&lt;/u&gt;" style="ellipse;whiteSpace=wrap;html=1;" vertex="1" parent="1">
          <mxGeometry x="-530" y="-3013" width="90" height="40" as="geometry" />
        </mxCell>
        <mxCell id="WJWYkvG_mtjWgYOk-y5Q-122" value="" style="endArrow=none;html=1;rounded=0;exitX=1;exitY=1;exitDx=0;exitDy=0;entryX=0;entryY=0.5;entryDx=0;entryDy=0;" edge="1" parent="1" source="WJWYkvG_mtjWgYOk-y5Q-116" target="WJWYkvG_mtjWgYOk-y5Q-121">
          <mxGeometry width="50" height="50" relative="1" as="geometry">
            <mxPoint x="-725" y="-3141" as="sourcePoint" />
            <mxPoint x="-675" y="-3191" as="targetPoint" />
          </mxGeometry>
        </mxCell>
        <mxCell id="WJWYkvG_mtjWgYOk-y5Q-123" value="icon" style="ellipse;whiteSpace=wrap;html=1;" vertex="1" parent="1">
          <mxGeometry x="-580" y="-2963" width="90" height="40" as="geometry" />
        </mxCell>
        <mxCell id="WJWYkvG_mtjWgYOk-y5Q-124" value="" style="endArrow=none;html=1;rounded=0;exitX=0.75;exitY=1;exitDx=0;exitDy=0;entryX=0;entryY=0.5;entryDx=0;entryDy=0;" edge="1" parent="1" source="WJWYkvG_mtjWgYOk-y5Q-116" target="WJWYkvG_mtjWgYOk-y5Q-123">
          <mxGeometry width="50" height="50" relative="1" as="geometry">
            <mxPoint x="-670" y="-2943" as="sourcePoint" />
            <mxPoint x="-725" y="-3141" as="targetPoint" />
          </mxGeometry>
        </mxCell>
        <mxCell id="WJWYkvG_mtjWgYOk-y5Q-126" value="" style="endArrow=none;html=1;rounded=0;exitX=0;exitY=0.25;exitDx=0;exitDy=0;entryX=1;entryY=0.5;entryDx=0;entryDy=0;" edge="1" parent="1" source="4PrdgSwKh92XZqFmVlbO-8" target="4PrdgSwKh92XZqFmVlbO-25">
          <mxGeometry width="50" height="50" relative="1" as="geometry">
            <mxPoint x="-770" y="-3000" as="sourcePoint" />
            <mxPoint x="-720" y="-3050" as="targetPoint" />
          </mxGeometry>
        </mxCell>
        <mxCell id="WJWYkvG_mtjWgYOk-y5Q-127" value="" style="endArrow=none;html=1;rounded=0;exitX=0;exitY=0.5;exitDx=0;exitDy=0;entryX=1;entryY=0.5;entryDx=0;entryDy=0;" edge="1" parent="1" source="4PrdgSwKh92XZqFmVlbO-25" target="4PrdgSwKh92XZqFmVlbO-11">
          <mxGeometry width="50" height="50" relative="1" as="geometry">
            <mxPoint x="-770" y="-3000" as="sourcePoint" />
            <mxPoint x="-720" y="-3050" as="targetPoint" />
          </mxGeometry>
        </mxCell>
        <mxCell id="WJWYkvG_mtjWgYOk-y5Q-128" value="Belongs to" style="rhombus;whiteSpace=wrap;html=1;" vertex="1" parent="1">
          <mxGeometry x="-1360" y="-2910" width="80" height="60" as="geometry" />
        </mxCell>
        <mxCell id="WJWYkvG_mtjWgYOk-y5Q-129" value="" style="endArrow=none;html=1;rounded=0;entryX=1;entryY=0.5;entryDx=0;entryDy=0;exitX=0.25;exitY=0;exitDx=0;exitDy=0;" edge="1" parent="1" target="WJWYkvG_mtjWgYOk-y5Q-128" source="4PrdgSwKh92XZqFmVlbO-8">
          <mxGeometry width="50" height="50" relative="1" as="geometry">
            <mxPoint x="-1109" y="-3020" as="sourcePoint" />
            <mxPoint x="-749" y="-3283" as="targetPoint" />
            <Array as="points">
              <mxPoint x="-1032" y="-2880" />
            </Array>
          </mxGeometry>
        </mxCell>
        <mxCell id="WJWYkvG_mtjWgYOk-y5Q-130" value="" style="endArrow=none;html=1;rounded=0;exitX=0.5;exitY=0;exitDx=0;exitDy=0;entryX=0.5;entryY=1;entryDx=0;entryDy=0;" edge="1" parent="1" source="WJWYkvG_mtjWgYOk-y5Q-128" target="4PrdgSwKh92XZqFmVlbO-10">
          <mxGeometry width="50" height="50" relative="1" as="geometry">
            <mxPoint x="-799" y="-3233" as="sourcePoint" />
            <mxPoint x="-1580" y="-3203" as="targetPoint" />
          </mxGeometry>
        </mxCell>
        <mxCell id="WJWYkvG_mtjWgYOk-y5Q-131" value="viewed" style="rhombus;whiteSpace=wrap;html=1;" vertex="1" parent="1">
          <mxGeometry x="-1360" y="-3253" width="80" height="60" as="geometry" />
        </mxCell>
        <mxCell id="WJWYkvG_mtjWgYOk-y5Q-132" value="" style="endArrow=none;html=1;rounded=0;" edge="1" parent="1" source="4PrdgSwKh92XZqFmVlbO-10" target="WJWYkvG_mtjWgYOk-y5Q-131">
          <mxGeometry width="50" height="50" relative="1" as="geometry">
            <mxPoint x="-770" y="-3000" as="sourcePoint" />
            <mxPoint x="-720" y="-3050" as="targetPoint" />
          </mxGeometry>
        </mxCell>
        <mxCell id="WJWYkvG_mtjWgYOk-y5Q-133" value="select" style="rhombus;whiteSpace=wrap;html=1;" vertex="1" parent="1">
          <mxGeometry x="-1575" y="-2970" width="80" height="60" as="geometry" />
        </mxCell>
        <mxCell id="WJWYkvG_mtjWgYOk-y5Q-134" value="" style="endArrow=none;html=1;rounded=0;" edge="1" parent="1" source="WJWYkvG_mtjWgYOk-y5Q-131" target="WJWYkvG_mtjWgYOk-y5Q-43">
          <mxGeometry width="50" height="50" relative="1" as="geometry">
            <mxPoint x="-770" y="-3000" as="sourcePoint" />
            <mxPoint x="-720" y="-3050" as="targetPoint" />
          </mxGeometry>
        </mxCell>
        <mxCell id="WJWYkvG_mtjWgYOk-y5Q-135" value="" style="endArrow=none;html=1;rounded=0;" edge="1" parent="1" source="4PrdgSwKh92XZqFmVlbO-11" target="WJWYkvG_mtjWgYOk-y5Q-133">
          <mxGeometry width="50" height="50" relative="1" as="geometry">
            <mxPoint x="-770" y="-3000" as="sourcePoint" />
            <mxPoint x="-720" y="-3050" as="targetPoint" />
          </mxGeometry>
        </mxCell>
        <mxCell id="WJWYkvG_mtjWgYOk-y5Q-136" value="" style="endArrow=none;html=1;rounded=0;" edge="1" parent="1" source="WJWYkvG_mtjWgYOk-y5Q-43" target="WJWYkvG_mtjWgYOk-y5Q-133">
          <mxGeometry width="50" height="50" relative="1" as="geometry">
            <mxPoint x="-1613" y="-3010" as="sourcePoint" />
            <mxPoint x="-1644" y="-3068" as="targetPoint" />
          </mxGeometry>
        </mxCell>
        <mxCell id="WJWYkvG_mtjWgYOk-y5Q-137" value="Belongs to" style="rhombus;whiteSpace=wrap;html=1;" vertex="1" parent="1">
          <mxGeometry x="-790" y="-2856" width="80" height="60" as="geometry" />
        </mxCell>
        <mxCell id="WJWYkvG_mtjWgYOk-y5Q-138" value="" style="endArrow=none;html=1;rounded=0;" edge="1" parent="1" source="4PrdgSwKh92XZqFmVlbO-8" target="WJWYkvG_mtjWgYOk-y5Q-137">
          <mxGeometry width="50" height="50" relative="1" as="geometry">
            <mxPoint x="-810" y="-3030" as="sourcePoint" />
            <mxPoint x="-760" y="-3080" as="targetPoint" />
          </mxGeometry>
        </mxCell>
        <mxCell id="WJWYkvG_mtjWgYOk-y5Q-140" value="" style="endArrow=none;html=1;rounded=0;" edge="1" parent="1" source="WJWYkvG_mtjWgYOk-y5Q-137" target="4PrdgSwKh92XZqFmVlbO-31">
          <mxGeometry width="50" height="50" relative="1" as="geometry">
            <mxPoint x="-810" y="-3030" as="sourcePoint" />
            <mxPoint x="-760" y="-3080" as="targetPoint" />
          </mxGeometry>
        </mxCell>
        <mxCell id="WJWYkvG_mtjWgYOk-y5Q-143" value="Belongs to" style="rhombus;whiteSpace=wrap;html=1;" vertex="1" parent="1">
          <mxGeometry x="-890" y="-2940" width="80" height="60" as="geometry" />
        </mxCell>
        <mxCell id="WJWYkvG_mtjWgYOk-y5Q-144" value="" style="endArrow=none;html=1;rounded=0;" edge="1" parent="1" target="WJWYkvG_mtjWgYOk-y5Q-143" source="4PrdgSwKh92XZqFmVlbO-8">
          <mxGeometry width="50" height="50" relative="1" as="geometry">
            <mxPoint x="-1010" y="-2933" as="sourcePoint" />
            <mxPoint x="-840" y="-3216" as="targetPoint" />
          </mxGeometry>
        </mxCell>
        <mxCell id="WJWYkvG_mtjWgYOk-y5Q-145" value="" style="endArrow=none;html=1;rounded=0;entryX=0;entryY=0.5;entryDx=0;entryDy=0;" edge="1" parent="1" source="WJWYkvG_mtjWgYOk-y5Q-143" target="WJWYkvG_mtjWgYOk-y5Q-116">
          <mxGeometry width="50" height="50" relative="1" as="geometry">
            <mxPoint x="-890" y="-3166" as="sourcePoint" />
            <mxPoint x="-330" y="-3130" as="targetPoint" />
          </mxGeometry>
        </mxCell>
        <mxCell id="WJWYkvG_mtjWgYOk-y5Q-146" value="have" style="rhombus;whiteSpace=wrap;html=1;" vertex="1" parent="1">
          <mxGeometry x="-1025" y="-3015.5" width="80" height="60" as="geometry" />
        </mxCell>
        <mxCell id="WJWYkvG_mtjWgYOk-y5Q-147" value="" style="endArrow=none;html=1;rounded=0;" edge="1" parent="1" target="WJWYkvG_mtjWgYOk-y5Q-146" source="4PrdgSwKh92XZqFmVlbO-8">
          <mxGeometry width="50" height="50" relative="1" as="geometry">
            <mxPoint x="-1162.5" y="-3109.5" as="sourcePoint" />
            <mxPoint x="-992.5" y="-3392.5" as="targetPoint" />
          </mxGeometry>
        </mxCell>
        <mxCell id="WJWYkvG_mtjWgYOk-y5Q-148" value="" style="endArrow=none;html=1;rounded=0;" edge="1" parent="1" source="WJWYkvG_mtjWgYOk-y5Q-146" target="WJWYkvG_mtjWgYOk-y5Q-58">
          <mxGeometry width="50" height="50" relative="1" as="geometry">
            <mxPoint x="-1042.5" y="-3342.5" as="sourcePoint" />
            <mxPoint x="-482.5" y="-3306.5" as="targetPoint" />
          </mxGeometry>
        </mxCell>
        <mxCell id="WJWYkvG_mtjWgYOk-y5Q-157" value="M" style="text;html=1;align=center;verticalAlign=middle;resizable=0;points=[];autosize=1;strokeColor=none;fillColor=none;" vertex="1" parent="1">
          <mxGeometry x="-1020" y="-3183" width="30" height="30" as="geometry" />
        </mxCell>
        <mxCell id="WJWYkvG_mtjWgYOk-y5Q-159" value="M" style="text;html=1;align=center;verticalAlign=middle;resizable=0;points=[];autosize=1;strokeColor=none;fillColor=none;" vertex="1" parent="1">
          <mxGeometry x="-1560" y="-2840" width="30" height="30" as="geometry" />
        </mxCell>
        <mxCell id="WJWYkvG_mtjWgYOk-y5Q-160" value="M" style="text;html=1;align=center;verticalAlign=middle;resizable=0;points=[];autosize=1;strokeColor=none;fillColor=none;" vertex="1" parent="1">
          <mxGeometry x="-915" y="-2832" width="30" height="30" as="geometry" />
        </mxCell>
        <mxCell id="WJWYkvG_mtjWgYOk-y5Q-161" value="M" style="text;html=1;align=center;verticalAlign=middle;resizable=0;points=[];autosize=1;strokeColor=none;fillColor=none;" vertex="1" parent="1">
          <mxGeometry x="-1455" y="-2815" width="30" height="30" as="geometry" />
        </mxCell>
        <mxCell id="WJWYkvG_mtjWgYOk-y5Q-162" value="M" style="text;html=1;align=center;verticalAlign=middle;resizable=0;points=[];autosize=1;strokeColor=none;fillColor=none;" vertex="1" parent="1">
          <mxGeometry x="-1320" y="-2982" width="30" height="30" as="geometry" />
        </mxCell>
        <mxCell id="WJWYkvG_mtjWgYOk-y5Q-163" value="M" style="text;html=1;align=center;verticalAlign=middle;resizable=0;points=[];autosize=1;strokeColor=none;fillColor=none;" vertex="1" parent="1">
          <mxGeometry x="-975" y="-2846" width="30" height="30" as="geometry" />
        </mxCell>
        <mxCell id="WJWYkvG_mtjWgYOk-y5Q-166" value="1" style="text;html=1;align=center;verticalAlign=middle;resizable=0;points=[];autosize=1;strokeColor=none;fillColor=none;" vertex="1" parent="1">
          <mxGeometry x="-810" y="-3027" width="30" height="30" as="geometry" />
        </mxCell>
        <mxCell id="WJWYkvG_mtjWgYOk-y5Q-168" value="1" style="text;html=1;align=center;verticalAlign=middle;resizable=0;points=[];autosize=1;strokeColor=none;fillColor=none;" vertex="1" parent="1">
          <mxGeometry x="-1060" y="-2835" width="30" height="30" as="geometry" />
        </mxCell>
        <mxCell id="WJWYkvG_mtjWgYOk-y5Q-169" value="1" style="text;html=1;align=center;verticalAlign=middle;resizable=0;points=[];autosize=1;strokeColor=none;fillColor=none;" vertex="1" parent="1">
          <mxGeometry x="-1575" y="-3183" width="30" height="30" as="geometry" />
        </mxCell>
        <mxCell id="WJWYkvG_mtjWgYOk-y5Q-170" value="1" style="text;html=1;align=center;verticalAlign=middle;resizable=0;points=[];autosize=1;strokeColor=none;fillColor=none;" vertex="1" parent="1">
          <mxGeometry x="-1465" y="-3218" width="30" height="30" as="geometry" />
        </mxCell>
        <mxCell id="WJWYkvG_mtjWgYOk-y5Q-171" value="1" style="text;html=1;align=center;verticalAlign=middle;resizable=0;points=[];autosize=1;strokeColor=none;fillColor=none;" vertex="1" parent="1">
          <mxGeometry x="-1100" y="-2820" width="30" height="30" as="geometry" />
        </mxCell>
        <mxCell id="WJWYkvG_mtjWgYOk-y5Q-173" value="1" style="text;html=1;align=center;verticalAlign=middle;resizable=0;points=[];autosize=1;strokeColor=none;fillColor=none;" vertex="1" parent="1">
          <mxGeometry x="-650" y="-2856" width="30" height="30" as="geometry" />
        </mxCell>
        <mxCell id="WJWYkvG_mtjWgYOk-y5Q-174" value="&lt;u&gt;ID&lt;/u&gt;" style="ellipse;whiteSpace=wrap;html=1;" vertex="1" parent="1">
          <mxGeometry x="-1245" y="-2780" width="90" height="40" as="geometry" />
        </mxCell>
        <mxCell id="WJWYkvG_mtjWgYOk-y5Q-175" value="" style="endArrow=none;html=1;rounded=0;exitX=1;exitY=0.5;exitDx=0;exitDy=0;entryX=0;entryY=0.5;entryDx=0;entryDy=0;" edge="1" source="WJWYkvG_mtjWgYOk-y5Q-174" parent="1" target="4PrdgSwKh92XZqFmVlbO-8">
          <mxGeometry width="50" height="50" relative="1" as="geometry">
            <mxPoint x="-975" y="-2920" as="sourcePoint" />
            <mxPoint x="-1080" y="-2770" as="targetPoint" />
          </mxGeometry>
        </mxCell>
      </root>
    </mxGraphModel>
  </diagram>
</mxfile>
